<svg width="60" height="60" viewBox="0 0 60 60" fill="none" xmlns="http://www.w3.org/2000/svg">
<circle cx="30" cy="30" r="30" fill="white"/>
<path d="M41.1837 25.3813C41.17 24.435 40.995 23.4963 40.66 22.6113C40.0737 21.1 38.88 19.905 37.3687 19.32C36.495 18.9912 35.5712 18.815 34.6362 18.795C33.4337 18.7412 33.0525 18.7262 30 18.7262C26.9475 18.7262 26.5562 18.7262 25.3625 18.795C24.4287 18.815 23.505 18.9912 22.6312 19.32C21.12 19.905 19.925 21.1 19.34 22.6113C19.0112 23.485 18.8337 24.4087 18.8162 25.3425C18.7625 26.5462 18.7462 26.9275 18.7462 29.98C18.7462 33.0325 18.7462 33.4225 18.8162 34.6175C18.835 35.5525 19.0112 36.475 19.34 37.3513C19.9262 38.8613 21.12 40.0563 22.6325 40.6413C23.5025 40.9813 24.4262 41.1737 25.3637 41.2037C26.5675 41.2575 26.9487 41.2737 30.0012 41.2737C33.0537 41.2737 33.445 41.2737 34.6387 41.2037C35.5725 41.185 36.4962 41.0087 37.3712 40.68C38.8825 40.0937 40.0762 38.8987 40.6625 37.3887C40.9912 36.5137 41.1675 35.5912 41.1862 34.655C41.24 33.4525 41.2562 33.0712 41.2562 30.0175C41.2537 26.965 41.2537 26.5775 41.1837 25.3813ZM29.9925 35.7525C26.8 35.7525 24.2137 33.1662 24.2137 29.9737C24.2137 26.7812 26.8 24.195 29.9925 24.195C33.1825 24.195 35.7712 26.7812 35.7712 29.9737C35.7712 33.1662 33.1825 35.7525 29.9925 35.7525ZM36.0012 25.3287C35.255 25.3287 34.6537 24.7262 34.6537 23.9812C34.6537 23.2362 35.255 22.6337 36.0012 22.6337C36.745 22.6337 37.3475 23.2362 37.3475 23.9812C37.3475 24.7262 36.745 25.3287 36.0012 25.3287Z" fill="#64646A"/>
<path d="M29.9925 33.7275C32.0656 33.7275 33.7462 32.0469 33.7462 29.9738C33.7462 27.9006 32.0656 26.22 29.9925 26.22C27.9194 26.22 26.2387 27.9006 26.2387 29.9738C26.2387 32.0469 27.9194 33.7275 29.9925 33.7275Z" fill="#64646A"/>
</svg>
