<svg width="60" height="60" viewBox="0 0 60 60" fill="none" xmlns="http://www.w3.org/2000/svg">
<circle cx="30" cy="30" r="30" fill="white"/>
<path d="M21.2287 23.9963C22.7392 23.9963 23.9637 22.7718 23.9637 21.2613C23.9637 19.7508 22.7392 18.5263 21.2287 18.5263C19.7182 18.5263 18.4937 19.7508 18.4937 21.2613C18.4937 22.7718 19.7182 23.9963 21.2287 23.9963Z" fill="#64646A"/>
<path d="M26.5462 26.0688V41.2425H31.2575V33.7388C31.2575 31.7588 31.63 29.8413 34.085 29.8413C36.5062 29.8413 36.5362 32.105 36.5362 33.8638V41.2438H41.25V32.9225C41.25 28.835 40.37 25.6938 35.5925 25.6938C33.2987 25.6938 31.7612 26.9525 31.1325 28.1438H31.0687V26.0688H26.5462V26.0688ZM18.8687 26.0688H23.5875V41.2425H18.8687V26.0688Z" fill="#64646A"/>
</svg>
