<svg width="60" height="60" viewBox="0 0 60 60" fill="none" xmlns="http://www.w3.org/2000/svg">
<circle cx="30" cy="30" r="30" fill="white"/>
<path d="M37.7082 32.9746C36.8686 32.794 36.2044 33.1839 35.6162 33.5244C35.0139 33.8751 33.8686 34.8043 33.2121 34.5665C29.851 33.1826 26.6899 30.2408 25.3214 26.8661C25.0802 26.1956 26.005 25.0431 26.3532 24.4336C26.6911 23.8437 27.0729 23.1732 26.8988 22.3273C26.7414 21.5671 24.7062 18.9774 23.9865 18.2692C23.5119 17.8014 23.0257 17.5442 22.5265 17.5026C20.6499 17.422 18.5541 19.926 18.1865 20.525C17.2656 21.8023 17.2708 23.502 18.202 25.5628C20.4462 31.0984 28.934 39.4522 34.4902 41.7807C35.5156 42.2602 36.4532 42.5006 37.2955 42.5006C38.1196 42.5006 38.8535 42.2706 39.4843 41.8146C39.9601 41.5404 42.5667 39.3405 42.4984 37.4135C42.4571 36.9222 42.2005 36.4311 41.7388 35.9555C41.0358 35.2291 38.4627 33.1332 37.7082 32.9746Z" fill="#64646A"/>
</svg>
