<svg width="60" height="60" viewBox="0 0 60 60" fill="none" xmlns="http://www.w3.org/2000/svg">
<path d="M60 30C60 46.5685 46.5685 60 30 60C13.4315 60 0 46.5685 0 30C0 13.4315 13.4315 0 30 0C46.5685 0 60 13.4315 60 30Z" fill="white"/>
<path d="M30 44.0908C37.732 44.0908 44 37.5787 44 29.5454C44 21.5122 37.732 15 30 15C22.268 15 16 21.5122 16 29.5454C16 37.5787 22.268 44.0908 30 44.0908Z" stroke="#64646A" stroke-width="3" stroke-linecap="round" stroke-linejoin="round"/>
<path d="M30 19.6922V29.0763" stroke="#64646A" stroke-width="3" stroke-linecap="round" stroke-linejoin="round"/>
<path d="M37 36.5835L30 30.0146" stroke="#64646A" stroke-width="3" stroke-linecap="round" stroke-linejoin="round"/>
</svg>
