<svg width="60" height="60" viewBox="0 0 60 60" fill="none" xmlns="http://www.w3.org/2000/svg">
<circle cx="30" cy="30" r="30" fill="white"/>
<path d="M39.5412 24.9962C39.5575 25.215 39.5575 25.4325 39.5575 25.65C39.5575 32.3062 34.4912 39.9762 25.2325 39.9762C22.38 39.9762 19.73 39.15 17.5 37.715C17.905 37.7612 18.295 37.7775 18.7163 37.7775C21.07 37.7775 23.2362 36.9825 24.9675 35.6262C22.7537 35.58 20.8987 34.13 20.2587 32.135C20.57 32.1812 20.8825 32.2125 21.21 32.2125C21.6612 32.2125 22.115 32.15 22.5362 32.0412C20.2275 31.5737 18.4988 29.5475 18.4988 27.1V27.0375C19.17 27.4112 19.9487 27.645 20.7737 27.6762C19.4175 26.7737 18.5287 25.23 18.5287 23.4837C18.5287 22.5487 18.7775 21.6912 19.2138 20.9437C21.6925 23.9975 25.4188 25.9937 29.5963 26.2125C29.5188 25.8375 29.4712 25.4487 29.4712 25.0587C29.4712 22.2837 31.7162 20.0237 34.5062 20.0237C35.9562 20.0237 37.265 20.6312 38.185 21.6137C39.3225 21.395 40.4125 20.9737 41.38 20.3975C41.0063 21.5662 40.21 22.5487 39.1663 23.1725C40.18 23.0625 41.1625 22.7825 42.065 22.3925C41.38 23.39 40.5237 24.2787 39.5412 24.9962Z" fill="#64646A"/>
</svg>
